HIERARCHY
ROOT Spine
{
    OFFSET 0.0 0.0 -0.0
    CHANNELS 6 Xposition Yposition Zposition Zrotation Xrotation Yrotation
    JOINT ShoulderCenter
    {
        OFFSET 0.0 33.47124099731445 0.0
        CHANNELS 3 Zrotation Xrotation Yrotation
        JOINT LeftShoulder
        {
            OFFSET 19.03068733215332 0.0 0.0
            CHANNELS 3 Zrotation Xrotation Yrotation
            JOINT LeftElbow
            {
                OFFSET 29.755142211914062 0.0 0.0
                CHANNELS 3 Zrotation Xrotation Yrotation
                JOINT LeftHand
                {
                    OFFSET 33.20057678222656 0.0 0.0
                    CHANNELS 3 Zrotation Xrotation Yrotation
                    End Site
                    {
                        OFFSET 13.280232429504395 0.0 0.0
                    }
                }
            }
        }
        JOINT RightShoulder
        {
            OFFSET -19.03068733215332 0.0 0.0
            CHANNELS 3 Zrotation Xrotation Yrotation
            JOINT RightElbow
            {
                OFFSET -29.755142211914062 0.0 0.0
                CHANNELS 3 Zrotation Xrotation Yrotation
                JOINT RightHand
                {
                    OFFSET -33.20057678222656 0.0 0.0
                    CHANNELS 3 Zrotation Xrotation Yrotation
                    End Site
                    {
                        OFFSET -13.280232429504395 0.0 0.0
                    }
                }
            }
        }
        End Site
        {
            OFFSET 0.0 13.388495445251465 0.0
        }
    }
    JOINT LeftHip
    {
        OFFSET 16.227246092448336 -16.227246092448336 0.0
        CHANNELS 3 Zrotation Xrotation Yrotation
        JOINT LeftKnee
        {
            OFFSET 0.0 -40.64470291137695 0.0
            CHANNELS 3 Zrotation Xrotation Yrotation
            JOINT LeftFoot
            {
                OFFSET 0.0 -46.7921142578125 0.0
                CHANNELS 3 Zrotation Xrotation Yrotation
                End Site
                {
                    OFFSET 0.0 0.0 18.716846466064453
                }
            }
        }
    }
    JOINT RightHip
    {
        OFFSET -16.227246092448336 -16.227246092448336 0.0
        CHANNELS 3 Zrotation Xrotation Yrotation
        JOINT RightKnee
        {
            OFFSET 0.0 -40.64470291137695 0.0
            CHANNELS 3 Zrotation Xrotation Yrotation
            JOINT RightFoot
            {
                OFFSET 0.0 -46.7921142578125 0.0
                CHANNELS 3 Zrotation Xrotation Yrotation
                End Site
                {
                    OFFSET 0.0 0.0 18.716846466064453
                }
            }
        }
    }
}
MOTION
Frames: 9
Frame Time: 0.03333333333333333
62.30000305175781 -25.400001525878906 79.9000015258789 114.11683006732382 -55.67528705532238 112.24702682462203 2.763592080940801e-06 3.595337426161487e-06 -19.533302611622812 -158.73532123466086 14.838711270172078 -144.46651389625137 2.1439800385491958e-06 -1.3619056593736005e-06 32.555469202856024 -2.3854160110976376e-15 1.6552148617688095e-32 -7.951386703658792e-16 177.52238593130153 10.192430619132605 -148.266259583604 -1.7098901661528135e-06 -4.5659078088222235e-06 -34.536510228385396 2.275920434932113e-32 6.559894030518502e-15 -3.9756933518293955e-16 -14.887738477156157 -18.383605679323566 -36.794115737323594 -4.356958843788284 6.553951488973492 -9.986420584269409 3.1805546814635168e-15 -4.770832022195275e-15 6.3611093629270335e-15 165.59128290729896 -73.40819569284831 104.80154134794904 -11.491737493198503 4.740619309034939 2.618470691567946 0.0 0.0 0.0
62.0 -32.20000076293945 82.70000457763672 119.82007144762153 -55.5932238588618 121.15611830559908 1.9588788607719227e-06 2.8541241334188007e-06 -19.80303246524752 -146.70350997625187 -2.179998891561869 -159.57599908576947 -3.8154421518591474e-07 -5.5383012639863606e-06 31.04618502259022 3.1805546814635168e-15 -2.3854160110976376e-15 -2.3854160110976376e-15 -177.58583497646885 6.790249928284855 -156.1392702392086 -1.1819959959965773e-06 -2.361843879604455e-06 -32.396384018553775 3.1805546814635168e-15 7.951386703658792e-16 -1.5902773407317584e-15 -11.787111425035862 -26.217717709374412 -28.47230068877761 4.931581766050517 -2.464800558153645 7.2824276713092075 -1.1034765745125397e-32 1.9878466759146977e-16 6.361109362927033e-15 168.88244703134026 -70.10983373892675 106.87223192220556 -15.264766038596601 4.015381034537534 2.456350156751303 1.5902773407317584e-15 8.827812596100317e-32 6.3611093629270335e-15
62.30000305175781 -39.599998474121094 85.0999984741211 126.0489231990135 -54.20435095529809 129.1060916604019 7.289510304727871e-08 -3.2690292767139012e-06 -17.486900554996573 -148.97724774308716 -8.008528193910912 -171.10553995197475 -2.435631340363285e-06 -5.664955998417166e-06 28.914571454385005 7.951386703658792e-15 1.5902773407317576e-15 -9.54166404439055e-15 -176.5631988488677 24.22364029699389 -164.1992897316188 3.6666299257052124e-07 -1.3436491015943684e-06 -23.006638612730974 1.5902773407317582e-15 3.9756933518293955e-16 -7.951386703658791e-16 -8.735156976697466 -42.9305962672107 19.47216067199819 3.3433309212160203 2.0140532728971343 -8.17640674917941 1.3914926731402884e-15 9.93923337957349e-17 7.951386703658791e-16 167.30911295905554 -68.38437171532826 107.8704463040958 -17.351840076707692 4.586089250214386 2.8583549814383207 1.5902773407317582e-15 1.5902773407317582e-15 -2.2069531490250793e-32
62.19999694824219 -47.60000228881836 87.5999984741211 133.15237059036835 -53.729719667698916 137.50988739616963 -1.4609752259560714e-06 -3.2112052471619323e-06 -7.9601006258597415 -150.84494432167304 -6.217252355626727 -176.2298756693045 -2.8455185268522864e-06 8.047262061298117e-06 25.281288033212803 3.180554681463516e-15 7.95138670365879e-15 3.180554681463516e-15 -175.7715953647314 33.77578957617613 -159.09774994123316 1.8869680940706732e-06 3.7799674551077955e-06 -19.362032167625102 0.0 0.0 -1.5902773407317584e-15 -6.3650210824563604 -58.73486192284964 55.193279815028724 11.563191965940373 4.111003680258027 -15.916072005954954 0.0 0.0 0.0 168.36547488705386 -66.68753982279397 108.60473700642869 -19.50901162521267 4.745664216338052 3.0974986671776255 8.827812596100317e-32 1.590277340731758e-15 -6.361109362927032e-15
62.099998474121094 -55.0 88.9000015258789 132.0096379942278 -55.392487535804015 141.0105459780871 -1.597096722773799e-06 -3.4028465981839456e-06 -4.181130473726857 -123.88882977132383 -53.772045001084834 -152.70802291640726 -2.5734587032737943e-06 3.625165431236819e-06 22.067481251537668 -1.5902773407317588e-15 -8.827812596100317e-32 6.361109362927035e-15 -176.55997436975903 39.8022151282654 -155.2510013295925 -2.586903859170075e-07 1.5608927017136018e-06 -15.971691412448134 1.5902773407317584e-15 5.517382872562698e-33 3.975693351829396e-16 -18.101185802573614 -76.48036292684448 55.954078987203296 17.427303462879085 1.4999681128362645 -3.464389901244775 -5.963540027744092e-16 0.0 0.0 174.7725339226067 -60.09437510329704 115.55378806128039 -22.74973146106997 4.376060705566393 2.907901764217728 -8.827812596100317e-32 -1.5902773407317582e-15 -6.361109362927033e-15
61.5 -60.39999771118164 90.10000610351562 123.69005223538493 -61.72965083109368 133.27054495108516 -1.7824813872905433e-06 -1.7837183725487872e-07 6.122906985577883 -141.1039041038267 -13.863659045206763 -153.8688480711636 2.030351092122199e-07 -1.2323181151276294e-05 22.707243870407286 4.770832022195275e-15 0.0 0.0 -175.51719780841447 44.982445604469746 -149.36152077632667 -5.24283661712927e-07 -6.24790364592961e-06 -15.115425343422979 0.0 0.0 7.951386703658792e-16 -175.7543947580653 -78.23910210095038 -97.51522510288402 23.514651375471203 -1.4336016466361554 1.8006642321514235 1.5902773407317588e-15 1.5902773407317588e-15 -2.2069531490250793e-32 173.93990223147037 -47.18324700229713 112.71424739449078 -24.21428993383042 2.9160140590384303 1.4723740063869382 3.1805546814635164e-15 1.5902773407317584e-15 6.361109362927033e-15
61.5 -63.30000305175781 91.0 110.33920432339788 -68.30773112362365 116.53904602033124 -1.0005612287504087e-06 -1.6499241406983672e-06 9.647152336202534 -140.80257243557224 -7.961872219240459 -154.0353262835249 -4.26890676850028e-06 2.9792217035926277e-06 24.451351843497434 0.0 0.0 0.0 -170.35749024360106 60.59575215180107 -153.09180064013557 4.2263132531296783e-07 3.943909011242315e-06 -14.136048455825465 3.1805546814635168e-15 7.95138670365879e-16 -7.156248033292914e-15 171.59149001666265 -54.41207956891583 -110.81872343604589 28.770413070620478 -3.969345681321649 3.216415527700379 0.0 -1.987846675914698e-16 0.0 176.5978457455692 -31.22277024722461 111.26834271782921 -27.041471640119884 7.604588643542695 2.4974489258672286 -3.1805546814635168e-15 3.1805546814635168e-15 8.827812596100317e-32
62.0 -65.20000457763672 91.19999694824219 93.03938018044987 -70.23991142146747 99.26195498455138 6.92721123387807e-07 -8.310882619858586e-07 9.664284600835405 -142.09293239936602 -3.604507288587581 -156.25351322047592 4.999101657050585e-07 3.0273409888751394e-06 24.609098264333447 7.951386703658791e-16 0.0 0.0 -162.22574093822197 57.87808364085376 -161.37901680922224 3.947247718674642e-06 1.3177503617322894e-05 -14.919856742445146 -3.1805546814635168e-15 -3.1805546814635168e-15 -7.951386703658792e-16 170.65251797786567 -36.85027132129594 -112.88298531662036 31.30798679323451 -6.1462747890133755 3.4554061766933133 0.0 -3.2799470152592518e-15 0.0 -177.63138753000362 -19.97993789706105 114.56964152912144 -28.578877516301667 12.235879995221106 2.7322444747415013 0.0 0.0 0.0
62.599998474121094 -66.5999984741211 91.5999984741211 83.9382280211591 -70.16323667568135 92.38185203628255 -1.37596692983864e-06 2.581828738324676e-06 6.799495661805088 -145.22400350407386 0.3660446609317925 -156.57244272832443 2.8327992569667404e-06 3.828956272282884e-06 23.34696986434313 -3.1805546814635176e-15 6.361109362927035e-15 1.7655625192200634e-31 -160.62664686589255 53.95809567076757 -164.42565788654093 1.9341163021054428e-06 6.421079694375243e-06 -15.31497424179312 0.0 0.0 1.5902773407317588e-15 170.31146283056847 -27.27893334734232 -114.14115856710848 31.43274254245811 -8.157781993969321 3.570348032988371 1.1034765745125397e-32 -1.987846675914698e-16 6.3611093629270335e-15 -172.35210999978537 -15.365673812484834 117.33235739090112 -29.943201560689197 12.695306258981013 3.0597672984727455 -1.7655625192200634e-31 -3.1805546814635164e-15 -6.361109362927033e-15
